<svg viewBox="0 0 820 400" xmlns="http://www.w3.org/2000/svg" font-family="Helvetica Neue, Arial, sans-serif" width="820" height="400">
<rect width="820" height="400" fill="#fff"/>
<g transform="translate(20,0)">
<text x="390" y="28" text-anchor="middle" font-size="14" font-weight="600" fill="#111" letter-spacing="0.04em">THE PRIVILEGE GAP — WHY MISSING AUTHORIZATION IS EXPLOITABLE</text>
<rect x="20" y="44" width="740" height="1" fill="#eee" stroke="none"/>
<line x1="160" y1="70" x2="160" y2="350" stroke="#ddd" stroke-width="2"/>
<text x="160" y="60" text-anchor="middle" font-size="9" font-weight="500" fill="#888">HIGH PRIVILEGE</text>
<text x="160" y="368" text-anchor="middle" font-size="9" font-weight="500" fill="#888">LOW PRIVILEGE</text>
<line x1="152" y1="80" x2="160" y2="80" stroke="#c33" stroke-width="2"/>
<text x="146" y="84" text-anchor="end" font-size="11" font-weight="700" fill="#c33">Administrator</text>
<line x1="152" y1="145" x2="160" y2="145" stroke="#888" stroke-width="2"/>
<text x="146" y="149" text-anchor="end" font-size="11" font-weight="400" fill="#888">Editor</text>
<line x1="152" y1="210" x2="160" y2="210" stroke="#888" stroke-width="2"/>
<text x="146" y="214" text-anchor="end" font-size="11" font-weight="400" fill="#888">Author</text>
<line x1="152" y1="275" x2="160" y2="275" stroke="#888" stroke-width="2"/>
<text x="146" y="279" text-anchor="end" font-size="11" font-weight="400" fill="#888">Contributor</text>
<line x1="152" y1="340" x2="160" y2="340" stroke="#36c" stroke-width="2"/>
<text x="146" y="344" text-anchor="end" font-size="11" font-weight="700" fill="#36c">Subscriber</text>
<rect x="290" y="90" width="420" height="240" rx="0" fill="#c33" fill-opacity="0.06" stroke="#c33" stroke-width="1" stroke-dasharray="5,3"/>
<text x="500" y="202" text-anchor="middle" font-size="18" font-weight="700" fill="#c33">PRIVILEGE ESCALATION</text>
<text x="500" y="224" text-anchor="middle" font-size="11" font-weight="400" fill="#666">Subscriber performs Administrator-only operations</text>
<text x="500" y="242" text-anchor="middle" font-size="11" font-weight="400" fill="#666">because the handler never checks current_user_can()</text>
<line x1="720" y1="86" x2="720" y2="326" stroke="#c33" stroke-width="2"/>
<path d="M 720,86 L 716,94 L 724,94 z" fill="#c33" stroke="none"/>
<path d="M 720,334 L 716,326 L 724,326 z" fill="#c33" stroke="none"/>
<rect x="260" y="79" width="480" height="3" fill="#c33" stroke="none"/>
<rect x="260" y="64" width="220" height="28" fill="#c33" stroke="none"/>
<text x="270" y="84" text-anchor="start" font-size="11" font-weight="700" fill="#fff">REQUIRED: manage_options</text>
<rect x="260" y="339" width="480" height="3" fill="#36c" stroke="none"/>
<rect x="260" y="324" width="280" height="28" fill="#36c" stroke="none"/>
<text x="270" y="344" text-anchor="start" font-size="11" font-weight="700" fill="#fff">REACHABLE: Subscriber (has nonce)</text>
</g></svg>