<svg viewBox="0 0 860 528" xmlns="http://www.w3.org/2000/svg" font-family="Helvetica Neue, Arial, sans-serif" width="860" height="528">
<rect width="860" height="528" fill="#fff"/>
<g transform="translate(40, 0)">
<defs>
<marker id="arrowG" markerWidth="9" markerHeight="9" refX="7" refY="3.5" orient="auto">
  <path d="M0,0 L0,7 L8,3.5 z" fill="#555"/>
</marker>
<marker id="arrowD" markerWidth="9" markerHeight="9" refX="7" refY="3.5" orient="auto">
  <path d="M0,0 L0,7 L8,3.5 z" fill="#111"/>
</marker>
</defs>
<text x="390" y="36" text-anchor="middle" font-size="12" font-weight="500" fill="#111" letter-spacing="0.05em">NOFILTER-NFEXEC  —  TWO-STAGE PIPELINE</text>
<line x1="20" y1="46" x2="760" y2="46" stroke="#eee" stroke-width="1"/>
<text x="390" y="72" text-anchor="middle" font-size="9" font-weight="500" fill="#666" letter-spacing="0.07em">STAGE 1: NOFILTER — PRIVILEGE ESCALATION</text>
<rect x="34" y="88" width="160" height="62" rx="0" fill="#f5f5f5"/>
<text x="114" y="116" text-anchor="middle" font-size="12" font-weight="500" fill="#111">Find BFE PID</text>
<text x="114" y="134" text-anchor="middle" font-size="10" font-weight="300" fill="#666">SCM query</text>
<line x1="196" y1="119" x2="216" y2="119" stroke="#999" stroke-width="1.5" marker-end="url(#arrowG)"/>
<rect x="218" y="88" width="160" height="62" rx="0" fill="#f5f5f5"/>
<text x="298" y="116" text-anchor="middle" font-size="12" font-weight="500" fill="#111">Scan Handles</text>
<text x="298" y="134" text-anchor="middle" font-size="10" font-weight="300" fill="#666">NtQueryObject</text>
<line x1="380" y1="119" x2="400" y2="119" stroke="#999" stroke-width="1.5" marker-end="url(#arrowG)"/>
<rect x="402" y="88" width="160" height="62" rx="0" fill="#111"/>
<text x="482" y="116" text-anchor="middle" font-size="12" font-weight="500" fill="#fff">Kernel IOCTLs</text>
<text x="482" y="134" text-anchor="middle" font-size="10" font-weight="300" fill="#bbb">tcpip.sys</text>
<line x1="564" y1="119" x2="584" y2="119" stroke="#999" stroke-width="1.5" marker-end="url(#arrowG)"/>
<rect x="586" y="88" width="160" height="62" rx="0" fill="#f5f5f5"/>
<text x="666" y="116" text-anchor="middle" font-size="12" font-weight="500" fill="#111">Impersonate</text>
<text x="666" y="134" text-anchor="middle" font-size="10" font-weight="300" fill="#666">SYSTEM token</text>
<line x1="390" y1="154" x2="390" y2="180" stroke="#999" stroke-width="1.5" marker-end="url(#arrowG)"/>
<text x="405" y="172" text-anchor="start" font-size="9" font-weight="300" fill="#555">SYSTEM token acquired</text>
<text x="390" y="212" text-anchor="middle" font-size="9" font-weight="500" fill="#666" letter-spacing="0.07em">STAGE 2: NFEXEC — COMMAND EXECUTION</text>
<rect x="270" y="228" width="240" height="62" rx="0" fill="#f5f5f5"/>
<text x="390" y="253" text-anchor="middle" font-size="12" font-weight="500" fill="#111">Auto-Detect Command Type</text>
<text x="390" y="271" text-anchor="middle" font-size="10" font-weight="300" fill="#555">~100 native commands recognized</text>
<line x1="390" y1="290" x2="390" y2="318" stroke="#999" stroke-width="1.5"/>
<line x1="390" y1="318" x2="220" y2="318" stroke="#999" stroke-width="1.5"/>
<line x1="220" y1="318" x2="220" y2="346" stroke="#999" stroke-width="1.5" marker-end="url(#arrowG)"/>
<line x1="390" y1="318" x2="560" y2="318" stroke="#999" stroke-width="1.5"/>
<line x1="560" y1="318" x2="560" y2="346" stroke="#999" stroke-width="1.5" marker-end="url(#arrowG)"/>
<text x="220" y="312" text-anchor="middle" font-size="9" font-weight="400" fill="#555">native exe</text>
<text x="560" y="312" text-anchor="middle" font-size="9" font-weight="400" fill="#555">everything else</text>
<rect x="70" y="348" width="300" height="62" rx="0" fill="#f5f5f5"/>
<text x="220" y="368" text-anchor="middle" font-size="8" font-weight="500" fill="#666" letter-spacing="0.06em">EXEC MODE</text>
<line x1="78" y1="374" x2="362" y2="374" stroke="#eee" stroke-width="1"/>
<text x="220" y="390" text-anchor="middle" font-size="10" font-weight="400" fill="#333">CreateProcessWithTokenW</text>
<text x="220" y="404" text-anchor="middle" font-size="9.5" font-weight="300" fill="#555">pipe capture + OEM to UTF-8</text>
<rect x="410" y="348" width="300" height="62" rx="0" fill="#111"/>
<text x="560" y="368" text-anchor="middle" font-size="8" font-weight="500" fill="#bbb" letter-spacing="0.06em">POWERSHELL MODE</text>
<line x1="418" y1="374" x2="702" y2="374" stroke="rgba(255,255,255,0.1)" stroke-width="1"/>
<text x="560" y="390" text-anchor="middle" font-size="10" font-weight="400" fill="#eee">Inline CLR hosting</text>
<text x="560" y="404" text-anchor="middle" font-size="9.5" font-weight="300" fill="#aaa">HWBP AMSI/ETW bypass</text>
<line x1="220" y1="410" x2="220" y2="461" stroke="#999" stroke-width="1.5"/>
<line x1="560" y1="410" x2="560" y2="461" stroke="#999" stroke-width="1.5"/>
<line x1="220" y1="461" x2="492" y2="461" stroke="#999" stroke-width="1.5"/>
<line x1="560" y1="461" x2="288" y2="461" stroke="#999" stroke-width="1.5"/>
<rect x="290" y="440" width="200" height="42" rx="0" fill="#f5f5f5" stroke="#ddd" stroke-width="1"/>
<text x="390" y="466" text-anchor="middle" font-size="11" font-weight="500" fill="#111">BeaconOutput</text>
<text x="390" y="506" text-anchor="middle" font-size="9" font-weight="300" fill="#666">All NT API calls use indirect syscalls. OPSEC features applied at every stage.</text>
</g>
</svg>