<svg viewBox="0 0 860 276" xmlns="http://www.w3.org/2000/svg" font-family="Helvetica Neue, Arial, sans-serif" width="860" height="276">
<rect width="860" height="276" fill="#fff"/>
<g transform="translate(40, 0)">
<defs>
<marker id="arrowG" markerWidth="9" markerHeight="9" refX="7" refY="3.5" orient="auto">
  <path d="M0,0 L0,7 L8,3.5 z" fill="#999"/>
</marker>
</defs>
<text x="390" y="36" text-anchor="middle" font-size="12" font-weight="500" fill="#111" letter-spacing="0.05em">TOKEN PERSISTENCE — LIFECYCLE ACROSS BOF CALLS</text>
<line x1="20" y1="46" x2="760" y2="46" stroke="#eee" stroke-width="1"/>
<text x="109" y="70" text-anchor="middle" font-size="9" font-weight="500" fill="#333" letter-spacing="0.03em">nofilter</text>
<text x="272" y="70" text-anchor="middle" font-size="9" font-weight="500" fill="#333" letter-spacing="0.03em">idle</text>
<text x="475" y="70" text-anchor="middle" font-size="9" font-weight="500" fill="#333" letter-spacing="0.03em">nfexec (repeatable)</text>
<text x="701" y="70" text-anchor="middle" font-size="9" font-weight="500" fill="#333" letter-spacing="0.03em">revert</text>
<rect x="0" y="86" width="218" height="8" fill="#111"/>
<rect x="218" y="86" width="109" height="8" fill="#ddd"/>
<rect x="327" y="86" width="296" height="8" fill="#111"/>
<rect x="623" y="86" width="157" height="8" fill="#ddd"/>
<line x1="218" y1="82" x2="218" y2="98" stroke="#999" stroke-width="1" stroke-dasharray="3,2"/>
<line x1="327" y1="82" x2="327" y2="98" stroke="#999" stroke-width="1" stroke-dasharray="3,2"/>
<line x1="623" y1="82" x2="623" y2="98" stroke="#999" stroke-width="1" stroke-dasharray="3,2"/>
<line x1="0" y1="106" x2="776" y2="106" stroke="#ccc" stroke-width="1" marker-end="url(#arrowG)"/>
<text x="776" y="118" text-anchor="end" font-size="8" font-weight="300" fill="#999">time</text>
<rect x="0" y="122" width="125" height="52" rx="0" fill="#f5f5f5" stroke="#c33" stroke-width="1"/>
<text x="62" y="144" text-anchor="middle" font-size="9.5" font-weight="500" fill="#111">IOCTL token theft</text>
<text x="62" y="161" text-anchor="middle" font-size="7.5" font-weight="300" fill="#555">Kernel duplicates token</text>
<line x1="62" y1="94" x2="62" y2="122" stroke="#ccc" stroke-width="1"/>
<rect x="131" y="122" width="125" height="52" rx="0" fill="#f5f5f5" stroke="#ddd" stroke-width="1"/>
<text x="193" y="144" text-anchor="middle" font-size="9.5" font-weight="500" fill="#111">Set thread token</text>
<text x="193" y="161" text-anchor="middle" font-size="7.5" font-weight="300" fill="#555">Impersonation applied</text>
<line x1="193" y1="94" x2="193" y2="122" stroke="#ccc" stroke-width="1"/>
<rect x="262" y="122" width="125" height="52" rx="0" fill="#f5f5f5" stroke="#ddd" stroke-width="1"/>
<text x="324" y="144" text-anchor="middle" font-size="9.5" font-weight="500" fill="#111">Demon idle</text>
<text x="324" y="161" text-anchor="middle" font-size="7.5" font-weight="300" fill="#555">Token stays active</text>
<line x1="324" y1="94" x2="324" y2="122" stroke="#ccc" stroke-width="1"/>
<rect x="393" y="122" width="125" height="52" rx="0" fill="#f5f5f5" stroke="#ddd" stroke-width="1"/>
<text x="455" y="144" text-anchor="middle" font-size="9.5" font-weight="500" fill="#111">Open thread token</text>
<text x="455" y="161" text-anchor="middle" font-size="7.5" font-weight="300" fill="#555">Reads SYSTEM token</text>
<line x1="455" y1="94" x2="455" y2="122" stroke="#ccc" stroke-width="1"/>
<rect x="524" y="122" width="125" height="52" rx="0" fill="#f5f5f5" stroke="#ddd" stroke-width="1"/>
<text x="586" y="144" text-anchor="middle" font-size="9.5" font-weight="500" fill="#111">Execute command</text>
<text x="586" y="161" text-anchor="middle" font-size="7.5" font-weight="300" fill="#555">CreateProcess / CLR</text>
<line x1="586" y1="94" x2="586" y2="122" stroke="#ccc" stroke-width="1"/>
<rect x="655" y="122" width="125" height="52" rx="0" fill="#f5f5f5" stroke="#ddd" stroke-width="1"/>
<text x="717" y="144" text-anchor="middle" font-size="9.5" font-weight="500" fill="#111">token revert</text>
<text x="717" y="161" text-anchor="middle" font-size="7.5" font-weight="300" fill="#555">Impersonation cleared</text>
<line x1="717" y1="94" x2="717" y2="122" stroke="#ccc" stroke-width="1"/>
<text x="0" y="194" text-anchor="start" font-size="8" font-weight="500" fill="#666" letter-spacing="0.05em">THREAD TOKEN STATE:</text>
<rect x="0" y="200" width="193" height="30" rx="0" fill="#eee" stroke="#ddd" stroke-width="1"/>
<text x="96" y="220" text-anchor="middle" font-size="9" font-weight="400" fill="#555">User</text>
<rect x="193" y="200" width="430" height="30" rx="0" fill="#111"/>
<text x="408" y="220" text-anchor="middle" font-size="10" font-weight="500" fill="#eee">NT AUTHORITY\SYSTEM</text>
<rect x="623" y="200" width="157" height="30" rx="0" fill="#eee" stroke="#ddd" stroke-width="1"/>
<text x="701" y="220" text-anchor="middle" font-size="9" font-weight="400" fill="#555">User</text>
<text x="390" y="254" text-anchor="middle" font-size="9" font-weight="300" fill="#666">The impersonation token stays on the Demon thread until explicitly reverted. Multiple nfexec calls reuse the same token.</text>
</g>
</svg>