<svg viewBox="0 0 820 440" xmlns="http://www.w3.org/2000/svg" width="820" height="440">
<rect width="820" height="440" fill="#fff"/>
<g transform="translate(20,0)">
<rect x="0" y="0" width="780" height="140" fill="#fafafa" stroke="#ddd" rx="0"/>
<rect x="0" y="0" width="780" height="26" fill="#555" rx="0"/>
<text x="12" y="17" text-anchor="start" font-size="11" font-weight="600" fill="#fff" font-family="Helvetica Neue, Arial, sans-serif" letter-spacing="0.06em">LAYER 2 NETWORK SEGMENT</text>
<text x="768" y="17" text-anchor="end" font-size="10" fill="#999" font-family="SFMono-Regular, Menlo, Monaco, Consolas, monospace">LAN / Wi-Fi / VLAN</text>
<rect x="40" y="42" width="200" height="72" fill="#fff" stroke="#c33" stroke-width="2" rx="0"/>
<rect x="40" y="42" width="200" height="24" fill="#c33" rx="0"/>
<text x="140" y="58" text-anchor="middle" font-size="11" font-weight="700" fill="#fff" font-family="Helvetica Neue, Arial, sans-serif">ATTACKER</text>
<text x="140" y="84" text-anchor="middle" font-size="10" fill="#333" font-family="Helvetica Neue, Arial, sans-serif">Rogue DHCPv6 Server</text>
<text x="140" y="100" text-anchor="middle" font-size="9.5" fill="#888" font-family="Helvetica Neue, Arial, sans-serif">Same local network</text>
<rect x="540" y="42" width="200" height="72" fill="#fff" stroke="#36c" stroke-width="2" rx="0"/>
<rect x="540" y="42" width="200" height="24" fill="#36c" rx="0"/>
<text x="640" y="58" text-anchor="middle" font-size="11" font-weight="700" fill="#fff" font-family="Helvetica Neue, Arial, sans-serif">TARGET DEVICE</text>
<text x="640" y="84" text-anchor="middle" font-size="10" fill="#333" font-family="Helvetica Neue, Arial, sans-serif">BusyBox udhcpc6</text>
<text x="640" y="100" text-anchor="middle" font-size="9.5" fill="#888" font-family="Helvetica Neue, Arial, sans-serif">Embedded Linux device</text>
<line x1="244" y1="78" x2="526" y2="78" stroke="#c33" stroke-width="2.0"/>
<path d="M536,78 L526,72 L526,84 Z" fill="#c33" stroke="none"/>
<text x="390" y="66" text-anchor="middle" font-size="10" font-weight="600" fill="#c33" font-family="Helvetica Neue, Arial, sans-serif">Crafted DHCPv6 Reply</text>
<text x="390" y="94" text-anchor="middle" font-size="9.5" fill="#888" font-family="SFMono-Regular, Menlo, Monaco, Consolas, monospace">UDP port 547 → 546</text>
<rect x="0" y="144" width="780" height="282" fill="#f7f7f7" stroke="#ddd" rx="0"/>
<rect x="0" y="144" width="780" height="26" fill="#555" rx="0"/>
<text x="12" y="161" text-anchor="start" font-size="11" font-weight="600" fill="#fff" font-family="Helvetica Neue, Arial, sans-serif" letter-spacing="0.06em">INSIDE udhcpc6 — option_to_env()</text>
<text x="768" y="161" text-anchor="end" font-size="10" fill="#999" font-family="SFMono-Regular, Menlo, Monaco, Consolas, monospace">d6_dhcpc.c</text>
<text x="30" y="180" text-anchor="start" font-size="10" font-weight="600" fill="#555" font-family="Helvetica Neue, Arial, sans-serif">DHCPv6 RESPONSE (packet buffer)</text>
<rect x="30" y="184" width="330" height="32" fill="#e8e8e8" stroke="#ccc" rx="0"/>
<text x="44" y="204" text-anchor="start" font-size="10" fill="#555" font-family="SFMono-Regular, Menlo, Monaco, Consolas, monospace">msg_type + transaction_id</text>
<rect x="30" y="219" width="330" height="32" fill="#fff" stroke="#ccc" rx="0"/>
<text x="44" y="239" text-anchor="start" font-size="10" fill="#555" font-family="SFMono-Regular, Menlo, Monaco, Consolas, monospace">Option 1: Client Identifier</text>
<rect x="30" y="254" width="330" height="32" fill="#fff" stroke="#ccc" rx="0"/>
<text x="44" y="274" text-anchor="start" font-size="10" fill="#555" font-family="SFMono-Regular, Menlo, Monaco, Consolas, monospace">Option 2: Server Identifier</text>
<rect x="30" y="289" width="330" height="32" fill="#fff" stroke="#ccc" rx="0"/>
<text x="44" y="309" text-anchor="start" font-size="10" fill="#555" font-family="SFMono-Regular, Menlo, Monaco, Consolas, monospace">Option 3: IA_NA</text>
<rect x="30" y="324" width="330" height="78" fill="#fce4e4" stroke="#c33" stroke-width="2" rx="0"/>
<text x="44" y="340" text-anchor="start" font-size="10" font-weight="700" fill="#c33" font-family="SFMono-Regular, Menlo, Monaco, Consolas, monospace">Option 23: DNS_SERVERS (TRIGGER)</text>
<rect x="44" y="350" width="54" height="36" fill="#fff" stroke="#c33" rx="0"/>
<text x="71" y="365" text-anchor="middle" font-size="14" font-weight="700" fill="#c33" font-family="SFMono-Regular, Menlo, Monaco, Consolas, monospace">00</text>
<text x="71" y="379" text-anchor="middle" font-size="9" fill="#888" font-family="SFMono-Regular, Menlo, Monaco, Consolas, monospace">Code</text>
<rect x="101" y="350" width="54" height="36" fill="#fff" stroke="#c33" rx="0"/>
<text x="128" y="365" text-anchor="middle" font-size="14" font-weight="700" fill="#c33" font-family="SFMono-Regular, Menlo, Monaco, Consolas, monospace">17</text>
<text x="128" y="379" text-anchor="middle" font-size="9" fill="#888" font-family="SFMono-Regular, Menlo, Monaco, Consolas, monospace">Code</text>
<rect x="158" y="350" width="54" height="36" fill="#fff" stroke="#c33" rx="0"/>
<text x="185" y="365" text-anchor="middle" font-size="14" font-weight="700" fill="#c33" font-family="SFMono-Regular, Menlo, Monaco, Consolas, monospace">00</text>
<text x="185" y="379" text-anchor="middle" font-size="9" fill="#888" font-family="SFMono-Regular, Menlo, Monaco, Consolas, monospace">Len</text>
<rect x="215" y="350" width="54" height="36" fill="#fff" stroke="#c33" rx="0"/>
<text x="242" y="365" text-anchor="middle" font-size="14" font-weight="700" fill="#c33" font-family="SFMono-Regular, Menlo, Monaco, Consolas, monospace">00</text>
<text x="242" y="379" text-anchor="middle" font-size="9" fill="#888" font-family="SFMono-Regular, Menlo, Monaco, Consolas, monospace">Len</text>
<text x="282" y="362" text-anchor="start" font-size="9.5" fill="#555" font-family="SFMono-Regular, Menlo, Monaco, Consolas, monospace">= 0x0017 (23)</text>
<text x="282" y="378" text-anchor="start" font-size="9.5" fill="#c33" font-family="SFMono-Regular, Menlo, Monaco, Consolas, monospace">Length = 0</text>
<text x="390" y="180" text-anchor="start" font-size="10" font-weight="600" fill="#555" font-family="Helvetica Neue, Arial, sans-serif">PROCESSING PIPELINE</text>
<rect x="390" y="184" width="370" height="42" fill="#fff" stroke="#ccc" rx="0"/>
<circle cx="412" cy="205" r="12" fill="#444"/>
<text x="412" y="209" text-anchor="middle" font-size="11" font-weight="700" fill="#fff" font-family="Helvetica Neue, Arial, sans-serif">1</text>
<text x="432" y="200" text-anchor="start" font-size="10" font-weight="600" fill="#333" font-family="Helvetica Neue, Arial, sans-serif">Parse option header</text>
<text x="432" y="216" text-anchor="start" font-size="10" fill="#888" font-family="SFMono-Regular, Menlo, Monaco, Consolas, monospace">code = 0x0017, length = 0</text>
<line x1="412" y1="226" x2="412" y2="230" stroke="#ccc" stroke-width="1"/>
<rect x="390" y="230" width="370" height="42" fill="#fff" stroke="#ccc" rx="0"/>
<circle cx="412" cy="251" r="12" fill="#444"/>
<text x="412" y="255" text-anchor="middle" font-size="11" font-weight="700" fill="#fff" font-family="Helvetica Neue, Arial, sans-serif">2</text>
<text x="432" y="246" text-anchor="start" font-size="10" font-weight="600" fill="#333" font-family="Helvetica Neue, Arial, sans-serif">Compute address count</text>
<text x="432" y="262" text-anchor="start" font-size="10" fill="#888" font-family="SFMono-Regular, Menlo, Monaco, Consolas, monospace">addrs = 0 >> 4 = 0</text>
<line x1="412" y1="272" x2="412" y2="276" stroke="#ccc" stroke-width="1"/>
<rect x="390" y="276" width="370" height="42" fill="#fff" stroke="#ccc" rx="0"/>
<circle cx="412" cy="297" r="12" fill="#444"/>
<text x="412" y="301" text-anchor="middle" font-size="11" font-weight="700" fill="#fff" font-family="Helvetica Neue, Arial, sans-serif">3</text>
<text x="432" y="292" text-anchor="start" font-size="10" font-weight="600" fill="#333" font-family="Helvetica Neue, Arial, sans-serif">Allocate heap buffer</text>
<text x="432" y="308" text-anchor="start" font-size="10" fill="#888" font-family="SFMono-Regular, Menlo, Monaco, Consolas, monospace">xmalloc(3) → 3 bytes</text>
<line x1="412" y1="318" x2="412" y2="322" stroke="#ccc" stroke-width="1"/>
<rect x="390" y="322" width="370" height="42" fill="#fff" stroke="#ccc" rx="0"/>
<circle cx="412" cy="343" r="12" fill="#444"/>
<text x="412" y="347" text-anchor="middle" font-size="11" font-weight="700" fill="#fff" font-family="Helvetica Neue, Arial, sans-serif">4</text>
<text x="432" y="338" text-anchor="start" font-size="10" font-weight="600" fill="#333" font-family="Helvetica Neue, Arial, sans-serif">Write "dns=" prefix</text>
<text x="432" y="354" text-anchor="start" font-size="10" fill="#888" font-family="SFMono-Regular, Menlo, Monaco, Consolas, monospace">stpcpy writes 5 bytes</text>
<rect x="390" y="376" width="370" height="42" fill="#c33" stroke="none" rx="0"/>
<text x="575" y="394" text-anchor="middle" font-size="12" font-weight="700" fill="#fff" font-family="Helvetica Neue, Arial, sans-serif">HEAP BUFFER OVERFLOW</text>
<text x="575" y="410" text-anchor="middle" font-size="10" fill="rgba(255,255,255,0.75)" font-family="SFMono-Regular, Menlo, Monaco, Consolas, monospace">stpcpy writes 5 bytes into 3-byte buffer</text>
<line x1="412" y1="364" x2="412" y2="368" stroke="#c33" stroke-width="2"/>
<path d="M412,376 L406,368 L418,368 Z" fill="#c33" stroke="none"/>
<line x1="362" y1="363" x2="380" y2="205" stroke="#c33" stroke-width="1.5" stroke-dasharray="5,3"/>
<path d="M388,205 L380,200 L380,210 Z" fill="#c33" stroke="none"/>
<line x1="390" y1="140" x2="390" y2="144" stroke="#888" stroke-width="1.5" stroke-dasharray="4,3"/>
</g>
</svg>