<svg viewBox="0 0 820 264" xmlns="http://www.w3.org/2000/svg" width="820" height="264">
<rect width="820" height="264" fill="#fff"/>
<g transform="translate(20,0)">
<text x="390" y="30" text-anchor="middle" font-size="14" font-weight="700" fill="#333" font-family="Helvetica Neue, Arial, sans-serif" letter-spacing="0.04em">HEAP BUFFER OVERFLOW — addrs = 0</text>
<text x="390" y="56" text-anchor="middle" font-size="11" fill="#555" font-family="SFMono-Regular, Menlo, Monaco, Consolas, monospace">xmalloc(4 + 0 × 40 − 1) = xmalloc(3)</text>
<text x="390" y="72" text-anchor="middle" font-size="11" fill="#555" font-family="SFMono-Regular, Menlo, Monaco, Consolas, monospace">stpcpy(dlist, "dns=") writes 5 bytes: d n s = NUL</text>
<rect x="44" y="96" width="118" height="72" fill="#f0f0f0" stroke="#ccc" rx="0"/>
<rect x="44" y="96" width="118" height="22" fill="#777" rx="0"/>
<text x="103" y="111" text-anchor="middle" font-size="10" font-weight="600" fill="#fff" font-family="Helvetica Neue, Arial, sans-serif">ALLOCATOR</text>
<text x="103" y="139" text-anchor="middle" font-size="10" fill="#888" font-family="Helvetica Neue, Arial, sans-serif">Heap Metadata</text>
<text x="103" y="155" text-anchor="middle" font-size="9" fill="#aaa" font-family="SFMono-Regular, Menlo, Monaco, Consolas, monospace">(size, flags)</text>
<rect x="165" y="96" width="84" height="72" fill="#e8f0fe" stroke="#36c" stroke-width="1.5" rx="0"/>
<rect x="165" y="96" width="84" height="22" fill="#36c" rx="0"/>
<text x="207" y="111" text-anchor="middle" font-size="10" font-weight="600" fill="#fff" font-family="SFMono-Regular, Menlo, Monaco, Consolas, monospace">Index 0</text>
<text x="207" y="139" text-anchor="middle" font-size="17" font-weight="700" fill="#333" font-family="SFMono-Regular, Menlo, Monaco, Consolas, monospace">'d'</text>
<text x="207" y="157" text-anchor="middle" font-size="10" fill="#666" font-family="SFMono-Regular, Menlo, Monaco, Consolas, monospace">0x64</text>
<rect x="252" y="96" width="84" height="72" fill="#e8f0fe" stroke="#36c" stroke-width="1.5" rx="0"/>
<rect x="252" y="96" width="84" height="22" fill="#36c" rx="0"/>
<text x="294" y="111" text-anchor="middle" font-size="10" font-weight="600" fill="#fff" font-family="SFMono-Regular, Menlo, Monaco, Consolas, monospace">Index 1</text>
<text x="294" y="139" text-anchor="middle" font-size="17" font-weight="700" fill="#333" font-family="SFMono-Regular, Menlo, Monaco, Consolas, monospace">'n'</text>
<text x="294" y="157" text-anchor="middle" font-size="10" fill="#666" font-family="SFMono-Regular, Menlo, Monaco, Consolas, monospace">0x6E</text>
<rect x="339" y="96" width="84" height="72" fill="#e8f0fe" stroke="#36c" stroke-width="1.5" rx="0"/>
<rect x="339" y="96" width="84" height="22" fill="#36c" rx="0"/>
<text x="381" y="111" text-anchor="middle" font-size="10" font-weight="600" fill="#fff" font-family="SFMono-Regular, Menlo, Monaco, Consolas, monospace">Index 2</text>
<text x="381" y="139" text-anchor="middle" font-size="17" font-weight="700" fill="#333" font-family="SFMono-Regular, Menlo, Monaco, Consolas, monospace">'s'</text>
<text x="381" y="157" text-anchor="middle" font-size="10" fill="#666" font-family="SFMono-Regular, Menlo, Monaco, Consolas, monospace">0x73</text>
<rect x="426" y="96" width="84" height="72" fill="#fce4e4" stroke="#c33" stroke-width="1.5" rx="0"/>
<rect x="426" y="96" width="84" height="22" fill="#c33" rx="0"/>
<text x="468" y="111" text-anchor="middle" font-size="10" font-weight="600" fill="#fff" font-family="SFMono-Regular, Menlo, Monaco, Consolas, monospace">Index 3</text>
<text x="468" y="139" text-anchor="middle" font-size="17" font-weight="700" fill="#c33" font-family="SFMono-Regular, Menlo, Monaco, Consolas, monospace">'='</text>
<text x="468" y="157" text-anchor="middle" font-size="10" fill="#b44" font-family="SFMono-Regular, Menlo, Monaco, Consolas, monospace">0x3D</text>
<rect x="513" y="96" width="84" height="72" fill="#fce4e4" stroke="#c33" stroke-width="1.5" rx="0"/>
<rect x="513" y="96" width="84" height="22" fill="#c33" rx="0"/>
<text x="555" y="111" text-anchor="middle" font-size="10" font-weight="600" fill="#fff" font-family="SFMono-Regular, Menlo, Monaco, Consolas, monospace">Index 4</text>
<text x="555" y="139" text-anchor="middle" font-size="17" font-weight="700" fill="#c33" font-family="SFMono-Regular, Menlo, Monaco, Consolas, monospace">NUL</text>
<text x="555" y="157" text-anchor="middle" font-size="10" fill="#b44" font-family="SFMono-Regular, Menlo, Monaco, Consolas, monospace">0x00</text>
<rect x="600" y="96" width="136" height="72" fill="#f0f0f0" stroke="#ccc" rx="0"/>
<rect x="600" y="96" width="136" height="22" fill="#777" rx="0"/>
<text x="668" y="111" text-anchor="middle" font-size="10" font-weight="600" fill="#fff" font-family="Helvetica Neue, Arial, sans-serif">ADJACENT</text>
<text x="668" y="139" text-anchor="middle" font-size="10" fill="#888" font-family="Helvetica Neue, Arial, sans-serif">Next Chunk</text>
<text x="668" y="157" text-anchor="middle" font-size="11" font-weight="700" fill="#c33" font-family="Helvetica Neue, Arial, sans-serif">CORRUPTED</text>
<line x1="599" y1="143" x2="590" y2="143" stroke="#c33" stroke-width="1.5" stroke-dasharray="4,3"/>
<path d="M598,143 L590,138 L590,148 Z" fill="#c33" stroke="none"/>
<line x1="165" y1="200" x2="423" y2="200" stroke="#36c" stroke-width="1.5"/>
<line x1="165" y1="195" x2="165" y2="200" stroke="#36c" stroke-width="1.5"/>
<line x1="423" y1="195" x2="423" y2="200" stroke="#36c" stroke-width="1.5"/>
<text x="294" y="216" text-anchor="middle" font-size="11" font-weight="600" fill="#36c" font-family="SFMono-Regular, Menlo, Monaco, Consolas, monospace">xmalloc(3)</text>
<line x1="426" y1="200" x2="597" y2="200" stroke="#c33" stroke-width="1.5"/>
<line x1="426" y1="195" x2="426" y2="200" stroke="#c33" stroke-width="1.5"/>
<line x1="597" y1="195" x2="597" y2="200" stroke="#c33" stroke-width="1.5"/>
<text x="511" y="216" text-anchor="middle" font-size="11" font-weight="700" fill="#c33" font-family="SFMono-Regular, Menlo, Monaco, Consolas, monospace">OVERFLOW (2 bytes)</text>
<text x="390" y="242" text-anchor="middle" font-size="10" fill="#888" font-family="Helvetica Neue, Arial, sans-serif">stpcpy writes past the 3-byte allocation, corrupting adjacent heap metadata.</text>
</g>
</svg>